<?xml version="1.0" encoding="utf-8" standalone="no"?>
<!DOCTYPE svg PUBLIC "-//W3C//DTD SVG 1.1//EN"
  "http://www.w3.org/Graphics/SVG/1.1/DTD/svg11.dtd">
<svg xmlns:xlink="http://www.w3.org/1999/xlink" width="460.8pt" height="345.6pt" viewBox="0 0 460.8 345.6" xmlns="http://www.w3.org/2000/svg" version="1.1">
 <metadata>
  <rdf:RDF xmlns:dc="http://purl.org/dc/elements/1.1/" xmlns:cc="http://creativecommons.org/ns#" xmlns:rdf="http://www.w3.org/1999/02/22-rdf-syntax-ns#">
   <cc:Work>
    <dc:type rdf:resource="http://purl.org/dc/dcmitype/StillImage"/>
    <dc:date>2022-03-02T23:08:31.941380</dc:date>
    <dc:format>image/svg+xml</dc:format>
    <dc:creator>
     <cc:Agent>
      <dc:title>Matplotlib v3.5.1, https://matplotlib.org/</dc:title>
     </cc:Agent>
    </dc:creator>
   </cc:Work>
  </rdf:RDF>
 </metadata>
 <defs>
  <style type="text/css">*{stroke-linejoin: round; stroke-linecap: butt}</style>
 </defs>
 <g id="figure_1">
  <g id="patch_1">
   <path d="M 0 345.6 
L 460.8 345.6 
L 460.8 0 
L 0 0 
z
" style="fill: #ffffff"/>
  </g>
  <g id="axes_1">
   <g id="patch_2">
    <path d="M 10.8 108.1 
L 450 108.1 
L 450 26.16 
L 10.8 26.16 
z
" style="fill: #ffffff"/>
   </g>
   <g id="matplotlib.axis_1">
    <g id="xtick_1">
     <g id="line2d_1">
      <defs>
       <path id="m87046ac5a9" d="M 0 0 
L 0 3.5 
" style="stroke: #000000; stroke-width: 0.8"/>
      </defs>
      <g>
       <use xlink:href="#m87046ac5a9" x="10.8" y="108.1" style="stroke: #000000; stroke-width: 0.8"/>
      </g>
     </g>
    </g>
    <g id="xtick_2">
     <g id="line2d_2">
      <g>
       <use xlink:href="#m87046ac5a9" x="98.64" y="108.1" style="stroke: #000000; stroke-width: 0.8"/>
      </g>
     </g>
    </g>
    <g id="xtick_3">
     <g id="line2d_3">
      <g>
       <use xlink:href="#m87046ac5a9" x="186.48" y="108.1" style="stroke: #000000; stroke-width: 0.8"/>
      </g>
     </g>
    </g>
    <g id="xtick_4">
     <g id="line2d_4">
      <g>
       <use xlink:href="#m87046ac5a9" x="274.32" y="108.1" style="stroke: #000000; stroke-width: 0.8"/>
      </g>
     </g>
    </g>
    <g id="xtick_5">
     <g id="line2d_5">
      <g>
       <use xlink:href="#m87046ac5a9" x="362.16" y="108.1" style="stroke: #000000; stroke-width: 0.8"/>
      </g>
     </g>
    </g>
    <g id="xtick_6">
     <g id="line2d_6">
      <g>
       <use xlink:href="#m87046ac5a9" x="450" y="108.1" style="stroke: #000000; stroke-width: 0.8"/>
      </g>
     </g>
    </g>
   </g>
   <g id="matplotlib.axis_2">
    <g id="ytick_1"/>
    <g id="ytick_2"/>
    <g id="ytick_3"/>
   </g>
   <g id="line2d_7">
    <path d="M 9.965539 99.78513 
L 11.923889 83.723235 
L 13.446213 55.087635 
L 15.00969 46.853886 
L 17.010868 67.215177 
L 18.76419 100.799139 
L 20.517564 82.100822 
L 22.433035 52.735135 
L 23.973788 35.862033 
L 25.788787 63.767548 
L 27.540852 97.473191 
L 29.239618 84.128839 
L 30.93807 51.802247 
L 32.748827 42.230007 
L 34.771262 65.308841 
L 36.326257 98.973923 
L 38.08937 87.049183 
L 39.840021 51.640006 
L 41.81099 40.567033 
L 43.569129 62.429057 
L 45.552035 97.513751 
L 47.036086 76.625176 
L 49.154858 41.581041 
L 50.750062 46.16436 
L 52.563908 74.516038 
L 54.315869 95.850777 
L 56.017934 80.356727 
L 58.16257 33.874577 
L 59.921651 46.1238 
L 61.67581 76.868538 
L 63.487457 88.671597 
L 67.227979 32.617206 
L 69.161146 56.263885 
L 71.143423 92.322028 
L 72.677214 86.927502 
L 74.265193 59.387031 
L 76.031028 33.468973 
L 78.163727 54.844273 
L 79.745214 90.902416 
L 81.566756 87.982071 
L 84.857533 35.780913 
L 86.828502 53.586902 
L 88.588683 92.889872 
L 90.352214 92.240907 
L 92.107735 61.780091 
L 93.859329 41.824404 
L 95.352124 61.415048 
L 97.290736 89.117761 
L 98.831699 82.263063 
L 100.582717 59.995436 
L 102.55955 38.214533 
L 104.31261 60.035996 
L 106.052528 90.861855 
L 107.798782 88.549916 
L 109.989178 54.925394 
L 111.959623 37.078844 
L 115.186525 95.688536 
L 116.935815 77.274141 
L 118.895475 46.488843 
L 120.437851 41.621602 
L 122.656886 62.956341 
L 124.189524 95.445174 
L 125.956564 78.612632 
L 127.53004 47.746213 
L 129.258231 48.354618 
L 130.936002 66.201168 
L 132.905086 98.487199 
L 134.723435 84.777804 
L 136.475343 47.665093 
L 138.214476 40.16143 
L 139.9745 62.104574 
L 141.756513 96.540303 
L 143.243339 78.734313 
L 145.161742 50.342075 
L 146.696108 42.797852 
L 148.92509 68.107504 
L 150.728517 98.000475 
L 152.328696 85.061727 
L 154.088824 45.677636 
L 155.787328 41.094317 
L 157.543896 63.361944 
L 159.291983 90.821295 
L 160.830066 77.720305 
L 162.813338 48.800782 
L 164.569592 43.974102 
L 166.544802 70.176082 
L 168.077231 99.217285 
L 169.828615 80.275606 
L 171.585812 48.151817 
L 173.562278 43.933541 
L 175.099785 63.889229 
L 177.082482 94.755648 
L 178.625016 78.977675 
L 180.162418 47.137808 
L 182.134382 36.429878 
L 183.671313 70.622245 
L 185.599088 99.906811 
L 187.527857 81.167934 
L 189.066516 49.084704 
L 190.656223 41.013197 
L 192.683528 60.766083 
L 194.227894 94.228364 
L 195.991949 75.732848 
L 197.726684 42.797852 
L 199.905614 42.473369 
L 201.649983 63.767548 
L 203.41053 100.109613 
L 204.970393 80.153925 
L 206.740522 46.853886 
L 208.275935 42.919533 
L 210.458896 65.22772 
L 211.99944 96.013019 
L 213.767579 82.465865 
L 215.299118 44.541946 
L 217.255479 43.568498 
L 219.019848 65.471082 
L 220.793589 96.499743 
L 222.545707 84.209959 
L 224.290075 46.245481 
L 226.041617 41.37824 
L 229.567738 96.094139 
L 231.275195 73.096426 
L 232.985322 40.24255 
L 234.771838 43.73074 
L 236.788567 63.970349 
L 238.351206 103.922285 
L 240.121282 80.478408 
L 241.654443 46.16436 
L 243.36211 46.326601 
L 245.290565 68.188625 
L 247.262791 96.743105 
L 249.015694 74.637719 
L 250.767811 42.838412 
L 252.312125 39.999188 
L 254.295031 61.69897 
L 256.055212 97.473191 
L 257.847382 78.896555 
L 259.413319 43.406257 
L 261.165699 49.287506 
L 263.136929 65.957806 
L 265.340205 94.796208 
L 266.885513 71.311771 
L 268.856116 28.155569 
L 272.815017 81.167934 
L 274.348388 88.99608 
L 276.094432 69.243194 
L 278.071736 44.136343 
L 279.83799 67.215177 
L 281.599584 96.986467 
L 283.34322 83.07427 
L 285.305445 50.869359 
L 287.052379 38.741818 
L 288.804183 60.725522 
L 290.780021 95.729096 
L 292.292502 82.749787 
L 294.078023 55.371557 
L 295.896215 45.393713 
L 297.626971 66.282289 
L 299.568672 98.081596 
L 301.087384 91.145778 
L 302.820129 50.95048 
L 304.580048 39.918068 
L 306.555362 62.145134 
L 308.139363 94.674527 
L 309.964622 82.465865 
L 311.735955 51.112722 
L 313.269117 39.836947 
L 315.010344 63.848668 
L 316.971575 98.446639 
L 318.520601 85.061727 
L 320.50581 54.195307 
L 322.262483 37.159964 
L 323.955595 60.684962 
L 325.649806 93.7822 
L 327.408206 85.50789 
L 329.164669 52.775695 
L 330.696208 34.685784 
L 332.888384 68.026384 
L 335.13365 95.03957 
L 336.745765 80.600089 
L 338.681027 43.852421 
L 340.220314 46.407722 
L 342.254844 62.104574 
L 343.76654 93.944441 
L 345.505882 75.448926 
L 347.269414 40.810395 
L 349.041322 45.393713 
L 350.590139 66.769013 
L 352.358382 96.1347 
L 354.12427 79.4644 
L 356.098275 42.960093 
L 357.830497 46.772765 
L 359.564761 67.783021 
L 361.316826 93.660519 
L 363.076274 75.448926 
L 364.826507 40.323671 
L 366.364485 42.716731 
L 368.557551 69.283754 
L 370.092074 97.027027 
L 372.071001 75.530047 
L 373.604582 40.607593 
L 375.353977 41.946085 
L 376.885359 70.743926 
L 378.869679 94.99901 
L 380.635147 74.313236 
L 382.606011 38.904059 
L 384.160901 42.473369 
L 385.93459 71.595693 
L 387.905401 89.280002 
L 389.61223 72.528581 
L 391.536549 36.389318 
L 393.288615 51.274963 
L 395.259688 84.453321 
L 396.778766 91.186338 
L 398.595858 65.552203 
L 400.611173 33.590654 
L 402.099256 53.586902 
L 403.884096 80.924572 
L 405.685272 89.645045 
L 409.556109 42.027205 
L 411.301525 54.641471 
L 413.292337 96.621424 
L 415.044402 87.414226 
L 416.83317 61.496169 
L 418.576649 33.752896 
L 420.082114 54.438669 
L 421.911615 89.117761 
L 423.485458 88.225433 
L 425.459254 58.778626 
L 427.015714 38.173973 
L 428.779455 60.766083 
L 430.801314 94.755648 
L 432.32767 91.4297 
L 435.892691 34.685784 
L 437.592766 54.033066 
L 439.512635 93.173795 
L 441.272972 87.373666 
L 442.806291 57.805178 
L 444.995273 35.659232 
L 446.739485 58.413583 
L 448.483854 95.282932 
L 450.240108 90.821295 
L 450.240108 90.821295 
" clip-path="url(#p619a1008b8)" style="fill: none; stroke: #1f77b4; stroke-width: 1.5; stroke-linecap: square"/>
   </g>
   <g id="patch_3">
    <path d="M 10.8 108.1 
L 10.8 26.16 
" style="fill: none; stroke: #000000; stroke-width: 0.8; stroke-linejoin: miter; stroke-linecap: square"/>
   </g>
   <g id="patch_4">
    <path d="M 450 108.1 
L 450 26.16 
" style="fill: none; stroke: #000000; stroke-width: 0.8; stroke-linejoin: miter; stroke-linecap: square"/>
   </g>
   <g id="patch_5">
    <path d="M 10.8 108.1 
L 450 108.1 
" style="fill: none; stroke: #000000; stroke-width: 0.8; stroke-linejoin: miter; stroke-linecap: square"/>
   </g>
   <g id="patch_6">
    <path d="M 10.8 26.16 
L 450 26.16 
" style="fill: none; stroke: #000000; stroke-width: 0.8; stroke-linejoin: miter; stroke-linecap: square"/>
   </g>
   <g id="text_1">
    <!-- v(t)=s(t)+n(t) -->
    <g transform="translate(188.731875 20.16)scale(0.12 -0.12)">
     <defs>
      <path id="DejaVuSerif-76" d="M 1581 0 
L 359 2988 
L -19 2988 
L -19 3322 
L 1509 3322 
L 1509 2988 
L 978 2988 
L 1913 703 
L 2847 2988 
L 2350 2988 
L 2350 3322 
L 3597 3322 
L 3597 2988 
L 3225 2988 
L 2003 0 
L 1581 0 
z
" transform="scale(0.015625)"/>
      <path id="DejaVuSerif-28" d="M 2041 -997 
Q 1281 -656 893 83 
Q 506 822 506 1931 
Q 506 3044 893 3783 
Q 1281 4522 2041 4863 
L 2041 4556 
Q 1559 4225 1350 3623 
Q 1141 3022 1141 1931 
Q 1141 844 1350 242 
Q 1559 -359 2041 -691 
L 2041 -997 
z
" transform="scale(0.015625)"/>
      <path id="DejaVuSerif-74" d="M 691 2988 
L 184 2988 
L 184 3322 
L 691 3322 
L 691 4353 
L 1269 4353 
L 1269 3322 
L 2350 3322 
L 2350 2988 
L 1269 2988 
L 1269 878 
Q 1269 456 1350 337 
Q 1431 219 1650 219 
Q 1875 219 1978 351 
Q 2081 484 2088 781 
L 2522 781 
Q 2497 328 2275 118 
Q 2053 -91 1600 -91 
Q 1103 -91 897 129 
Q 691 350 691 878 
L 691 2988 
z
" transform="scale(0.015625)"/>
      <path id="DejaVuSerif-29" d="M 453 -997 
L 453 -691 
Q 934 -359 1145 242 
Q 1356 844 1356 1931 
Q 1356 3022 1145 3623 
Q 934 4225 453 4556 
L 453 4863 
Q 1216 4522 1603 3783 
Q 1991 3044 1991 1931 
Q 1991 822 1603 83 
Q 1216 -656 453 -997 
z
" transform="scale(0.015625)"/>
      <path id="DejaVuSerif-3d" d="M 678 2894 
L 4684 2894 
L 4684 2394 
L 678 2394 
L 678 2894 
z
M 678 1619 
L 4684 1619 
L 4684 1119 
L 678 1119 
L 678 1619 
z
" transform="scale(0.015625)"/>
      <path id="DejaVuSerif-73" d="M 359 184 
L 359 959 
L 691 959 
Q 703 588 923 403 
Q 1144 219 1575 219 
Q 1963 219 2166 364 
Q 2369 509 2369 788 
Q 2369 1006 2220 1140 
Q 2072 1275 1594 1428 
L 1178 1569 
Q 750 1706 558 1912 
Q 366 2119 366 2438 
Q 366 2894 700 3153 
Q 1034 3413 1625 3413 
Q 1888 3413 2178 3344 
Q 2469 3275 2778 3144 
L 2778 2419 
L 2447 2419 
Q 2434 2741 2221 2922 
Q 2009 3103 1644 3103 
Q 1281 3103 1095 2975 
Q 909 2847 909 2591 
Q 909 2381 1050 2254 
Q 1191 2128 1613 1997 
L 2069 1856 
Q 2541 1709 2748 1489 
Q 2956 1269 2956 922 
Q 2956 450 2595 179 
Q 2234 -91 1600 -91 
Q 1278 -91 972 -22 
Q 666 47 359 184 
z
" transform="scale(0.015625)"/>
      <path id="DejaVuSerif-2b" d="M 2931 4013 
L 2931 2259 
L 4684 2259 
L 4684 1753 
L 2931 1753 
L 2931 0 
L 2431 0 
L 2431 1753 
L 678 1753 
L 678 2259 
L 2431 2259 
L 2431 4013 
L 2931 4013 
z
" transform="scale(0.015625)"/>
      <path id="DejaVuSerif-6e" d="M 263 0 
L 263 331 
L 781 331 
L 781 2988 
L 231 2988 
L 231 3322 
L 1356 3322 
L 1356 2731 
Q 1516 3069 1770 3241 
Q 2025 3413 2363 3413 
Q 2913 3413 3172 3097 
Q 3431 2781 3431 2113 
L 3431 331 
L 3944 331 
L 3944 0 
L 2356 0 
L 2356 331 
L 2853 331 
L 2853 1931 
Q 2853 2541 2703 2767 
Q 2553 2994 2175 2994 
Q 1775 2994 1565 2701 
Q 1356 2409 1356 1850 
L 1356 331 
L 1856 331 
L 1856 0 
L 263 0 
z
" transform="scale(0.015625)"/>
     </defs>
     <use xlink:href="#DejaVuSerif-76"/>
     <use xlink:href="#DejaVuSerif-28" x="56.494141"/>
     <use xlink:href="#DejaVuSerif-74" x="95.507812"/>
     <use xlink:href="#DejaVuSerif-29" x="135.693359"/>
     <use xlink:href="#DejaVuSerif-3d" x="174.707031"/>
     <use xlink:href="#DejaVuSerif-73" x="258.496094"/>
     <use xlink:href="#DejaVuSerif-28" x="309.814453"/>
     <use xlink:href="#DejaVuSerif-74" x="348.828125"/>
     <use xlink:href="#DejaVuSerif-29" x="389.013672"/>
     <use xlink:href="#DejaVuSerif-2b" x="428.027344"/>
     <use xlink:href="#DejaVuSerif-6e" x="511.816406"/>
     <use xlink:href="#DejaVuSerif-28" x="576.220703"/>
     <use xlink:href="#DejaVuSerif-74" x="615.234375"/>
     <use xlink:href="#DejaVuSerif-29" x="655.419922"/>
    </g>
   </g>
  </g>
  <g id="axes_2">
   <g id="patch_7">
    <path d="M 10.8 219.7 
L 450 219.7 
L 450 137.76 
L 10.8 137.76 
z
" style="fill: #ffffff"/>
   </g>
   <g id="matplotlib.axis_3">
    <g id="xtick_7">
     <g id="line2d_8">
      <g>
       <use xlink:href="#m87046ac5a9" x="10.8" y="219.7" style="stroke: #000000; stroke-width: 0.8"/>
      </g>
     </g>
    </g>
    <g id="xtick_8">
     <g id="line2d_9">
      <g>
       <use xlink:href="#m87046ac5a9" x="98.64" y="219.7" style="stroke: #000000; stroke-width: 0.8"/>
      </g>
     </g>
    </g>
    <g id="xtick_9">
     <g id="line2d_10">
      <g>
       <use xlink:href="#m87046ac5a9" x="186.48" y="219.7" style="stroke: #000000; stroke-width: 0.8"/>
      </g>
     </g>
    </g>
    <g id="xtick_10">
     <g id="line2d_11">
      <g>
       <use xlink:href="#m87046ac5a9" x="274.32" y="219.7" style="stroke: #000000; stroke-width: 0.8"/>
      </g>
     </g>
    </g>
    <g id="xtick_11">
     <g id="line2d_12">
      <g>
       <use xlink:href="#m87046ac5a9" x="362.16" y="219.7" style="stroke: #000000; stroke-width: 0.8"/>
      </g>
     </g>
    </g>
    <g id="xtick_12">
     <g id="line2d_13">
      <g>
       <use xlink:href="#m87046ac5a9" x="450" y="219.7" style="stroke: #000000; stroke-width: 0.8"/>
      </g>
     </g>
    </g>
   </g>
   <g id="matplotlib.axis_4">
    <g id="ytick_4"/>
    <g id="ytick_5"/>
    <g id="ytick_6"/>
   </g>
   <g id="line2d_14">
    <path d="M 9.965539 178.789976 
L 11.923889 180.134926 
L 13.446213 181.32047 
L 15.00969 181.943499 
L 17.010868 181.79226 
L 18.76419 180.918341 
L 22.433035 178.336431 
L 23.973788 177.506579 
L 25.788787 177.411642 
L 27.540852 178.083725 
L 30.93807 180.630845 
L 32.748827 181.639399 
L 34.771262 181.97678 
L 36.326257 181.528435 
L 38.08937 180.4471 
L 39.840021 179.10078 
L 41.81099 177.947509 
L 43.569129 177.379512 
L 45.552035 177.589799 
L 49.154858 179.817689 
L 50.750062 181.07701 
L 52.563908 181.856141 
L 54.315869 181.890215 
L 56.017934 181.16794 
L 58.16257 179.935348 
L 59.921651 178.611999 
L 61.67581 177.648161 
L 63.487457 177.371597 
L 65.521307 177.876094 
L 71.143423 181.44918 
L 72.677214 181.958302 
L 74.265193 181.687512 
L 76.031028 180.729349 
L 78.163727 179.410213 
L 79.745214 178.179173 
L 81.566756 177.455092 
L 83.324267 177.484089 
L 84.857533 178.255875 
L 86.828502 179.50738 
L 88.588683 180.812421 
L 90.352214 181.726837 
L 92.107735 181.939663 
L 93.859329 181.378899 
L 95.352124 180.235875 
L 98.831699 177.826009 
L 100.582717 177.379322 
L 102.55955 177.711538 
L 104.31261 178.709056 
L 107.798782 181.229562 
L 109.989178 181.894478 
L 111.959623 181.800693 
L 113.568545 180.98068 
L 116.935815 178.432454 
L 118.895475 177.572027 
L 120.437851 177.425409 
L 122.656886 178.041959 
L 125.956564 180.53461 
L 127.53004 181.561553 
L 129.258231 181.942638 
L 130.936002 181.548656 
L 132.905086 180.514386 
L 136.475343 178.033301 
L 138.214476 177.43133 
L 139.9745 177.59106 
L 141.756513 178.457434 
L 143.243339 179.734831 
L 145.161742 180.987933 
L 146.696108 181.790078 
L 148.92509 181.868544 
L 150.728517 181.197283 
L 154.088824 178.699711 
L 155.787328 177.724489 
L 157.543896 177.411684 
L 159.291983 177.867174 
L 162.813338 180.251152 
L 164.569592 181.366917 
L 166.544802 181.902605 
L 168.077231 181.676367 
L 169.828615 180.766034 
L 171.585812 179.482349 
L 173.562278 178.262898 
L 175.099785 177.52294 
L 177.082482 177.51399 
L 178.625016 178.238319 
L 180.162418 179.448433 
L 183.671313 181.650774 
L 185.599088 181.893178 
L 187.527857 181.377026 
L 189.066516 180.278974 
L 190.656223 178.973705 
L 192.683528 177.906071 
L 194.227894 177.43948 
L 195.991949 177.73219 
L 199.905614 179.968891 
L 201.649983 181.149787 
L 203.41053 181.824138 
L 204.970393 181.762809 
L 206.740522 180.987562 
L 208.275935 179.763355 
L 211.99944 177.648659 
L 213.767579 177.478183 
L 215.299118 178.053607 
L 217.255479 179.177975 
L 219.019848 180.467537 
L 220.793589 181.482723 
L 222.545707 181.877982 
L 224.290075 181.519412 
L 226.041617 180.530125 
L 227.591324 179.247986 
L 229.567738 178.110232 
L 231.275195 177.504354 
L 232.985322 177.636129 
L 234.771838 178.459718 
L 236.788567 179.693601 
L 238.351206 180.916802 
L 240.121282 181.712518 
L 241.654443 181.810146 
L 243.36211 181.177319 
L 249.015694 177.802622 
L 250.767811 177.480322 
L 252.312125 177.90362 
L 254.295031 178.927282 
L 256.055212 180.201658 
L 257.847382 181.292107 
L 259.413319 181.82724 
L 261.165699 181.625409 
L 263.136929 180.756378 
L 265.340205 179.517213 
L 266.885513 178.330741 
L 268.856116 177.601275 
L 270.831692 177.576832 
L 272.815017 178.264804 
L 276.094432 180.673979 
L 278.071736 181.573282 
L 279.83799 181.821593 
L 281.599584 181.335145 
L 287.052379 177.979042 
L 288.804183 177.516323 
L 290.780021 177.787324 
L 292.292502 178.698685 
L 295.896215 181.084709 
L 297.626971 181.745689 
L 299.568672 181.697143 
L 301.087384 180.956566 
L 304.580048 178.562066 
L 306.555362 177.725079 
L 308.139363 177.551223 
L 309.964622 178.098891 
L 311.735955 179.180417 
L 313.269117 180.426377 
L 315.010344 181.411772 
L 316.971575 181.80099 
L 318.520601 181.462114 
L 320.50581 180.511633 
L 323.955595 178.172631 
L 325.649806 177.581788 
L 327.408206 177.702664 
L 329.164669 178.493129 
L 330.696208 179.682802 
L 332.888384 180.865538 
L 335.13365 181.638068 
L 336.745765 181.737505 
L 338.681027 181.130794 
L 340.220314 180.025704 
L 343.76654 177.870916 
L 345.505882 177.555754 
L 347.269414 177.960895 
L 349.041322 178.9473 
L 350.590139 180.177892 
L 352.358382 181.232739 
L 354.12427 181.752346 
L 356.098275 181.56017 
L 357.830497 180.722601 
L 361.316826 178.378941 
L 363.076274 177.672452 
L 364.826507 177.646977 
L 366.364485 178.310412 
L 368.557551 179.435708 
L 370.092074 180.63857 
L 372.071001 181.508692 
L 373.604582 181.749703 
L 375.353977 181.280116 
L 378.869679 179.040195 
L 380.635147 178.034615 
L 382.606011 177.586855 
L 384.160901 177.849027 
L 385.93459 178.730954 
L 389.61223 181.040038 
L 391.536549 181.679403 
L 393.288615 181.6317 
L 395.259688 180.913898 
L 396.778766 179.771499 
L 398.595858 178.594574 
L 400.611173 177.784585 
L 402.099256 177.617448 
L 403.884096 178.14955 
L 405.685272 179.198731 
L 407.416081 180.406636 
L 409.556109 181.361108 
L 411.301525 181.736813 
L 413.292337 181.406123 
L 415.044402 180.482469 
L 418.576649 178.212949 
L 420.082114 177.641361 
L 421.911615 177.761228 
L 423.485458 178.531085 
L 425.459254 179.68779 
L 427.015714 180.836457 
L 428.779455 181.585259 
L 430.801314 181.679075 
L 432.32767 181.086405 
L 434.297382 180.009942 
L 435.892691 178.817258 
L 437.592766 177.915297 
L 439.512635 177.611541 
L 441.272972 178.009194 
L 442.806291 178.972121 
L 446.739485 181.197889 
L 448.483854 181.701384 
L 450.240108 181.510499 
L 450.240108 181.510499 
" clip-path="url(#pbb8d36cc5c)" style="fill: none; stroke: #1f77b4; stroke-width: 1.5; stroke-linecap: square"/>
   </g>
   <g id="patch_8">
    <path d="M 10.8 219.7 
L 10.8 137.76 
" style="fill: none; stroke: #000000; stroke-width: 0.8; stroke-linejoin: miter; stroke-linecap: square"/>
   </g>
   <g id="patch_9">
    <path d="M 450 219.7 
L 450 137.76 
" style="fill: none; stroke: #000000; stroke-width: 0.8; stroke-linejoin: miter; stroke-linecap: square"/>
   </g>
   <g id="patch_10">
    <path d="M 10.8 219.7 
L 450 219.7 
" style="fill: none; stroke: #000000; stroke-width: 0.8; stroke-linejoin: miter; stroke-linecap: square"/>
   </g>
   <g id="patch_11">
    <path d="M 10.8 137.76 
L 450 137.76 
" style="fill: none; stroke: #000000; stroke-width: 0.8; stroke-linejoin: miter; stroke-linecap: square"/>
   </g>
   <g id="text_2">
    <!-- s(t) -->
    <g transform="translate(220.228125 131.76)scale(0.12 -0.12)">
     <use xlink:href="#DejaVuSerif-73"/>
     <use xlink:href="#DejaVuSerif-28" x="51.318359"/>
     <use xlink:href="#DejaVuSerif-74" x="90.332031"/>
     <use xlink:href="#DejaVuSerif-29" x="130.517578"/>
    </g>
   </g>
  </g>
  <g id="axes_3">
   <g id="patch_12">
    <path d="M 10.8 331.3 
L 450 331.3 
L 450 249.36 
L 10.8 249.36 
z
" style="fill: #ffffff"/>
   </g>
   <g id="matplotlib.axis_5">
    <g id="xtick_13">
     <g id="line2d_15">
      <g>
       <use xlink:href="#m87046ac5a9" x="10.8" y="331.3" style="stroke: #000000; stroke-width: 0.8"/>
      </g>
     </g>
    </g>
    <g id="xtick_14">
     <g id="line2d_16">
      <g>
       <use xlink:href="#m87046ac5a9" x="98.64" y="331.3" style="stroke: #000000; stroke-width: 0.8"/>
      </g>
     </g>
    </g>
    <g id="xtick_15">
     <g id="line2d_17">
      <g>
       <use xlink:href="#m87046ac5a9" x="186.48" y="331.3" style="stroke: #000000; stroke-width: 0.8"/>
      </g>
     </g>
    </g>
    <g id="xtick_16">
     <g id="line2d_18">
      <g>
       <use xlink:href="#m87046ac5a9" x="274.32" y="331.3" style="stroke: #000000; stroke-width: 0.8"/>
      </g>
     </g>
    </g>
    <g id="xtick_17">
     <g id="line2d_19">
      <g>
       <use xlink:href="#m87046ac5a9" x="362.16" y="331.3" style="stroke: #000000; stroke-width: 0.8"/>
      </g>
     </g>
    </g>
    <g id="xtick_18">
     <g id="line2d_20">
      <g>
       <use xlink:href="#m87046ac5a9" x="450" y="331.3" style="stroke: #000000; stroke-width: 0.8"/>
      </g>
     </g>
    </g>
   </g>
   <g id="matplotlib.axis_6">
    <g id="ytick_7"/>
    <g id="ytick_8"/>
    <g id="ytick_9"/>
   </g>
   <g id="line2d_21">
    <path d="M 9.965539 323.993584 
L 11.923889 306.52853 
L 13.446213 276.62258 
L 15.00969 267.68445 
L 17.010868 288.147317 
L 18.76419 322.604311 
L 20.517564 305.25217 
L 22.433035 277.250246 
L 23.973788 261.295436 
L 25.788787 289.36191 
L 27.540852 322.41425 
L 29.239618 307.822315 
L 30.93807 274.07907 
L 32.748827 263.404207 
L 34.771262 286.069718 
L 36.326257 320.150914 
L 38.08937 309.329009 
L 39.840021 275.33579 
L 41.81099 265.512035 
L 43.569129 288.031457 
L 45.552035 322.956909 
L 47.036086 301.143903 
L 49.154858 264.726024 
L 50.750062 267.955237 
L 52.563908 295.432259 
L 54.315869 316.668388 
L 56.017934 301.884905 
L 58.16257 256.681443 
L 59.921651 270.345669 
L 61.67581 302.158577 
L 63.487457 314.318077 
L 67.227979 256.639202 
L 69.161146 278.860694 
L 71.143423 313.698981 
L 72.677214 307.703133 
L 74.265193 280.385526 
L 76.031028 255.439686 
L 78.163727 278.207235 
L 79.745214 315.602521 
L 81.566756 313.507196 
L 84.857533 260.569561 
L 86.828502 277.067242 
L 88.588683 314.96737 
L 90.352214 313.296323 
L 92.107735 282.542608 
L 93.859329 263.124307 
L 95.352124 283.900384 
L 97.290736 313.03155 
L 98.831699 307.360414 
L 100.582717 285.629525 
L 102.55955 263.556729 
L 104.31261 284.358905 
L 106.052528 313.784045 
L 107.798782 310.165435 
L 109.989178 275.773302 
L 111.959623 257.961008 
L 115.186525 318.728201 
L 116.935815 301.698038 
L 118.895475 271.878782 
L 120.437851 267.232289 
L 122.656886 287.967834 
L 124.189524 319.241647 
L 125.956564 300.990294 
L 127.53004 268.985944 
L 129.258231 269.126221 
L 130.936002 287.332568 
L 132.905086 320.682816 
L 134.723435 308.376691 
L 136.475343 272.529008 
L 138.214476 265.72351 
L 139.9745 287.560726 
L 141.756513 321.122804 
L 143.243339 301.971561 
L 145.161742 272.222849 
L 146.696108 263.774064 
L 148.92509 288.938819 
L 150.728517 319.493817 
L 152.328696 307.79576 
L 154.088824 269.808277 
L 155.787328 266.303834 
L 157.543896 288.965163 
L 159.291983 315.999138 
L 160.830066 301.798316 
L 162.813338 271.481306 
L 164.569592 265.437478 
L 166.544802 291.017047 
L 168.077231 320.240461 
L 169.828615 302.220294 
L 171.585812 271.44341 
L 173.562278 268.539333 
L 175.099785 289.328654 
L 177.082482 320.264606 
L 178.625016 303.767866 
L 180.162418 270.668572 
L 182.134382 258.592016 
L 183.671313 291.773757 
L 185.599088 320.747374 
L 187.527857 302.500156 
L 189.066516 271.543305 
L 190.656223 264.849091 
L 192.683528 285.760393 
L 194.227894 319.767529 
L 195.991949 301.016763 
L 197.726684 267.116722 
L 199.905614 265.449641 
L 201.649983 285.48147 
L 203.41053 321.071085 
L 204.970393 301.125409 
L 206.740522 268.594153 
L 208.275935 265.924994 
L 210.458896 289.562151 
L 211.99944 321.286563 
L 213.767579 307.967893 
L 215.299118 269.486738 
L 217.255479 267.364601 
L 219.019848 287.919387 
L 220.793589 317.860463 
L 222.545707 305.111356 
L 224.290075 267.471221 
L 226.041617 263.601319 
L 229.567738 320.850054 
L 231.275195 298.521138 
L 232.985322 265.575652 
L 234.771838 268.247036 
L 236.788567 287.22435 
L 238.351206 325.900187 
L 240.121282 301.598404 
L 241.654443 267.137743 
L 243.36211 267.913981 
L 245.290565 290.938289 
L 247.262791 320.804887 
L 249.015694 299.711712 
L 250.767811 268.282283 
L 252.312125 265.048087 
L 254.295031 285.72486 
L 256.055212 320.19838 
L 257.847382 300.485301 
L 259.413319 264.411158 
L 261.165699 270.46039 
L 263.136929 287.989333 
L 265.340205 318.081954 
L 266.885513 295.816124 
L 268.856116 253.428936 
L 272.815017 305.837504 
L 274.348388 312.500369 
L 276.094432 291.481638 
L 278.071736 265.44113 
L 279.83799 288.237664 
L 281.599584 318.470354 
L 283.34322 305.601305 
L 285.305445 274.66435 
L 287.052379 263.597897 
L 288.804183 286.075477 
L 290.780021 320.838627 
L 292.292502 306.966908 
L 294.078023 278.35222 
L 295.896215 267.217994 
L 297.626971 287.424861 
L 299.568672 319.247033 
L 301.087384 313.026274 
L 302.820129 273.991976 
L 304.580048 264.171257 
L 306.555362 287.247625 
L 308.139363 319.974858 
L 309.964622 307.245434 
L 311.735955 274.834151 
L 313.269117 262.327188 
L 315.010344 285.355841 
L 316.971575 319.552226 
L 318.520601 306.479649 
L 320.50581 276.531338 
L 322.262483 260.705676 
L 323.955595 285.319368 
L 325.649806 319.012363 
L 327.408206 310.637651 
L 329.164669 277.146418 
L 330.696208 257.90167 
L 332.888384 290.088445 
L 335.13365 316.340143 
L 336.745765 301.788267 
L 338.681027 265.613781 
L 340.220314 269.232112 
L 342.254844 286.116666 
L 343.76654 318.8635 
L 345.505882 300.683325 
L 347.269414 265.664393 
L 349.041322 269.305989 
L 350.590139 289.500794 
L 352.358382 317.850432 
L 354.12427 300.672371 
L 356.098275 264.340862 
L 357.830497 268.947716 
L 359.564761 291.099616 
L 361.316826 318.075127 
L 363.076274 300.541581 
L 364.826507 265.445574 
L 366.364485 267.213474 
L 368.557551 292.716101 
L 370.092074 319.319601 
L 372.071001 296.99459 
L 373.604582 261.838523 
L 375.353977 263.617294 
L 376.885359 293.3765 
L 378.869679 318.7831 
L 380.635147 299.043872 
L 382.606011 264.055145 
L 384.160901 267.379215 
L 385.93459 295.676055 
L 387.905401 312.236831 
L 389.61223 294.447175 
L 391.536549 257.709465 
L 393.288615 272.641951 
L 395.259688 306.493282 
L 396.778766 314.292126 
L 398.595858 289.751342 
L 400.611173 258.538391 
L 402.099256 278.686432 
L 403.884096 305.527649 
L 405.685272 313.273791 
L 409.556109 263.656548 
L 411.301525 275.930426 
L 413.292337 318.224458 
L 415.044402 309.873764 
L 416.83317 285.061847 
L 418.576649 258.296607 
L 420.082114 279.500908 
L 421.911615 314.062218 
L 423.485458 312.455882 
L 425.459254 281.944036 
L 427.015714 260.28894 
L 428.779455 282.205157 
L 430.801314 316.122195 
L 432.32767 313.348543 
L 435.892691 258.677181 
L 437.592766 278.838857 
L 439.512635 318.244949 
L 441.272972 312.069378 
L 442.806291 281.614691 
L 444.995273 258.376371 
L 446.739485 280.20702 
L 448.483854 316.635382 
L 450.240108 312.362999 
L 450.240108 312.362999 
" clip-path="url(#p6c42864f30)" style="fill: none; stroke: #1f77b4; stroke-width: 1.5; stroke-linecap: square"/>
   </g>
   <g id="patch_13">
    <path d="M 10.8 331.3 
L 10.8 249.36 
" style="fill: none; stroke: #000000; stroke-width: 0.8; stroke-linejoin: miter; stroke-linecap: square"/>
   </g>
   <g id="patch_14">
    <path d="M 450 331.3 
L 450 249.36 
" style="fill: none; stroke: #000000; stroke-width: 0.8; stroke-linejoin: miter; stroke-linecap: square"/>
   </g>
   <g id="patch_15">
    <path d="M 10.8 331.3 
L 450 331.3 
" style="fill: none; stroke: #000000; stroke-width: 0.8; stroke-linejoin: miter; stroke-linecap: square"/>
   </g>
   <g id="patch_16">
    <path d="M 10.8 249.36 
L 450 249.36 
" style="fill: none; stroke: #000000; stroke-width: 0.8; stroke-linejoin: miter; stroke-linecap: square"/>
   </g>
   <g id="text_3">
    <!-- n(t) -->
    <g transform="translate(219.4425 243.36)scale(0.12 -0.12)">
     <use xlink:href="#DejaVuSerif-6e"/>
     <use xlink:href="#DejaVuSerif-28" x="64.404297"/>
     <use xlink:href="#DejaVuSerif-74" x="103.417969"/>
     <use xlink:href="#DejaVuSerif-29" x="143.603516"/>
    </g>
   </g>
  </g>
 </g>
 <defs>
  <clipPath id="p619a1008b8">
   <rect x="10.8" y="26.16" width="439.2" height="81.94"/>
  </clipPath>
  <clipPath id="pbb8d36cc5c">
   <rect x="10.8" y="137.76" width="439.2" height="81.94"/>
  </clipPath>
  <clipPath id="p6c42864f30">
   <rect x="10.8" y="249.36" width="439.2" height="81.94"/>
  </clipPath>
 </defs>
</svg>
